<svg width="89" height="132" viewBox="0 0 89 132" fill="none" xmlns="http://www.w3.org/2000/svg">
<path d="M37.8866 27.5534C41.0143 27.5534 43.5498 24.9161 43.5498 21.6627C43.5498 18.4093 41.0143 15.772 37.8866 15.772C34.7589 15.772 32.2234 18.4093 32.2234 21.6627C32.2234 24.9161 34.7589 27.5534 37.8866 27.5534Z" fill="#3D7FE0"/>
<path d="M56.64 31.3539C59.7677 31.3539 62.3032 28.7165 62.3032 25.4632C62.3032 22.2098 59.7677 19.5724 56.64 19.5724C53.5123 19.5724 50.9768 22.2098 50.9768 25.4632C50.9768 28.7165 53.5123 31.3539 56.64 31.3539Z" fill="#2BBAE7"/>
<path d="M62.5819 50.7363C65.7096 50.7363 68.2451 48.0989 68.2451 44.8456C68.2451 41.5922 65.7096 38.9548 62.5819 38.9548C59.4542 38.9548 56.9187 41.5922 56.9187 44.8456C56.9187 48.0989 59.4542 50.7363 62.5819 50.7363Z" fill="#4ABC90"/>
<path d="M49.3986 64.7981C52.5263 64.7981 55.0618 62.1607 55.0618 58.9073C55.0618 55.654 52.5263 53.0166 49.3986 53.0166C46.2709 53.0166 43.7354 55.654 43.7354 58.9073C43.7354 62.1607 46.2709 64.7981 49.3986 64.7981Z" fill="#FFD101"/>
<path d="M30.2736 60.4276C33.4013 60.4276 35.9368 57.7902 35.9368 54.5369C35.9368 51.2835 33.4013 48.6461 30.2736 48.6461C27.1459 48.6461 24.6104 51.2835 24.6104 54.5369C24.6104 57.7902 27.1459 60.4276 30.2736 60.4276Z" fill="#FF7D42"/>
<path d="M24.5177 40.6651C27.6454 40.6651 30.1809 38.0277 30.1809 34.7743C30.1809 31.521 27.6454 28.8836 24.5177 28.8836C21.39 28.8836 18.8545 31.521 18.8545 34.7743C18.8545 38.0277 21.39 40.6651 24.5177 40.6651Z" fill="#FF5072"/>
<path d="M43.8281 47.6959C47.7762 47.6959 50.9768 44.4204 50.9768 40.3799C50.9768 36.3395 47.7762 33.064 43.8281 33.064C39.88 33.064 36.6794 36.3395 36.6794 40.3799C36.6794 44.4204 39.88 47.6959 43.8281 47.6959Z" fill="#1CCCC4"/>
<path d="M33.1515 9.31117C35.7152 9.31117 37.7935 7.22679 37.7935 4.65558C37.7935 2.08438 35.7152 0 33.1515 0C30.5878 0 28.5095 2.08438 28.5095 4.65558C28.5095 7.22679 30.5878 9.31117 33.1515 9.31117Z" fill="#3D7FE0"/>
<path d="M68.0592 16.7221C70.6229 16.7221 72.7012 14.6377 72.7012 12.0665C72.7012 9.49532 70.6229 7.41095 68.0592 7.41095C65.4955 7.41095 63.4172 9.49532 63.4172 12.0665C63.4172 14.6377 65.4955 16.7221 68.0592 16.7221Z" fill="#2BBAE7"/>
<path d="M78.4574 54.3469C81.0211 54.3469 83.0994 52.2625 83.0994 49.6913C83.0994 47.1201 81.0211 45.0357 78.4574 45.0357C75.8937 45.0357 73.8154 47.1201 73.8154 49.6913C73.8154 52.2625 75.8937 54.3469 78.4574 54.3469Z" fill="#4ABC90"/>
<path d="M53.7621 80C56.3258 80 58.4041 77.9156 58.4041 75.3444C58.4041 72.7732 56.3258 70.6888 53.7621 70.6888C51.1984 70.6888 49.1201 72.7732 49.1201 75.3444C49.1201 77.9156 51.1984 80 53.7621 80Z" fill="#FFD101"/>
<path d="M17.9262 71.4489C20.4899 71.4489 22.5682 69.3645 22.5682 66.7933C22.5682 64.2221 20.4899 62.1378 17.9262 62.1378C15.3625 62.1378 13.2842 64.2221 13.2842 66.7933C13.2842 69.3645 15.3625 71.4489 17.9262 71.4489Z" fill="#FF7D42"/>
<path d="M8.64199 36.2946C11.2057 36.2946 13.284 34.2102 13.284 31.639C13.284 29.0678 11.2057 26.9834 8.64199 26.9834C6.07829 26.9834 4 29.0678 4 31.639C4 34.2102 6.07829 36.2946 8.64199 36.2946Z" fill="#FF5072"/>
<path d="M15.5561 116.866H4.06216V106.336H0V131.664H4.06216V120.344H15.5561V131.664H19.6351V106.336H15.5561V116.866ZM30.3094 116.866V109.832H42.4553V106.336H26.2472V131.664H42.6233V128.185H30.3094V120.344H40.9097V116.866H30.3094ZM62.7281 106.336L56.0384 125.673L49.3808 106.336H44.9705L54.3351 131.664H57.7732L67.1551 106.336H62.7281ZM89 119.791V118.243C89 115.799 88.6181 113.652 87.855 111.801C87.0815 109.925 85.9707 108.488 84.5278 107.495C83.0819 106.5 81.4095 106 79.5205 106C77.6617 106 76.0039 106.506 74.5577 107.513C73.1161 108.517 72.0011 109.962 71.2175 111.842C70.4436 113.698 70.0564 115.832 70.0564 118.243V120.007C70.0775 122.379 70.4781 124.466 71.2582 126.273C72.0473 128.1 73.1621 129.513 74.5976 130.505C76.0384 131.5 77.6931 132 79.5514 132C81.4512 132 83.1213 131.503 84.5518 130.513C85.9786 129.525 87.0812 128.097 87.8547 126.233C88.618 124.394 89 122.247 89 119.791ZM84.943 118.209V120.026C84.9141 122.731 84.4153 124.78 83.4719 126.172C82.5714 127.5 81.3322 128.147 79.6814 128.147C78.0472 128.147 76.7958 127.461 75.8573 126.043C74.8756 124.561 74.3743 122.479 74.3743 119.79V117.991C74.4032 115.365 74.9132 113.34 75.8829 111.913C76.8103 110.548 78.0435 109.886 79.6511 109.886C81.3106 109.886 82.5652 110.549 83.4866 111.911C84.4488 113.334 84.943 115.432 84.943 118.209Z" fill="white"/>
</svg>
