<svg id="SvgjsSvg1001" width="288" height="288" xmlns="http://www.w3.org/2000/svg" version="1.1" xmlns:xlink="http://www.w3.org/1999/xlink" xmlns:svgjs="http://svgjs.com/svgjs"><defs id="SvgjsDefs1002"></defs><g id="SvgjsG1008"><svg xmlns="http://www.w3.org/2000/svg" width="288" height="288" version="1.0" viewBox="0 0 512 512"><g transform="matrix(.1 0 0 -.1 0 512)" fill="#ffffff" class="color000 svgShape"><path d="M1990 4753 c-161 -9 -360 -56 -504 -119 -174 -77 -308 -190 -368-312 l-33 -67 0 -1440 0 -1440 33 -67 c98 -200 368 -361 700 -418 63 -11 117
-20 120 -20 4 0 7 55 8 123 1 247 76 450 220 595 92 92 248 156 334 137 27 -6
29 -3 77 97 119 247 298 407 493 440 l70 12 -2 986 -3 985 -26 55 c-111 236
-457 418 -853 450 -124 10 -146 10 -266 3z m410 -223 c212 -39 376 -125 428
-225 35 -69 7 -164 -68 -224 -129 -104 -384 -171 -650 -171 -579 0 -936 288
-618 499 104 70 278 122 483 145 85 9 314 -4 425 -24z m-652 -1460 l32 -12 0
-99 c0 -62 -4 -99 -10 -99 -6 0 -28 9 -50 20 -68 35 -140 20 -140 -29 0 -25
18 -44 87 -90 73 -49 109 -93 129 -157 42 -139 -27 -292 -146 -324 -55 -15
-162 -8 -212 13 l-38 16 0 111 c0 86 3 109 13 104 6 -5 29 -20 51 -36 46 -33
96 -44 126 -28 17 9 21 19 18 48 -3 34 -10 41 -75 85 -49 32 -80 61 -97 90
-79 137 -38 318 85 381 48 25 62 27 124 22 39 -2 85 -10 103 -16z m444 8 c52
-15 117 -74 151 -135 92 -169 71 -457 -43 -586 -22 -25 -40 -48 -40 -52 0 -4
38 -53 85 -110 47 -57 85 -106 85 -110 0 -3 -48 -4 -107 -3 l-108 3 -59 91
c-55 83 -64 92 -103 103 -54 14 -130 82 -161 143 -58 117 -68 313 -23 442 61
174 185 256 323 214z m456 -300 l2 -297 93 -3 92 -3 0 -95 0 -95 -182 -3 -183
-2 0 393 c0 217 3 397 7 401 4 4 43 5 88 4 l80 -3 3 -297z" fill="#ffffff" class="color000 svgShape"></path><path d="M2103 2872c-86-13-112-272-36-362 87-104 183 69 142 259-17 79-51 112-106 103zM3025 2143c-112-40-221-127-301-239-48-68-116-204-133-271l-11-41-37 10c-62 17-161 6-224-25-280-137-388-631-212-970 40-78 135-182 193-212 85-44 100-45 839-45 698 0 704 0 740 21 50 30 89 79 119 151 66 166 45 354-54 475-35 42-98 83-128 83-13 0-15 26-15 168 0 177-15 276-62 412-72 211-206 378-367 458-69 34-80 36-185 39-89 3-122 0-162-14zm317-108c127-62 219-159 294-310 101-205 126-434 78-711l-6-31 49 4c132 13 224-120 210-302-6-78-36-153-79-192-58-54-43-53-772-53-652 0-676 1-741 21-149 46-265 232-290 465-18 164 45 368 149 482 95 103 228 140 335 92 24-11 45-19 47-17 2 2 15 43 29 91 72 247 227 430 410 482 80 22 219 12 287-21z" fill="#ffffff" class="color000 svgShape"></path></g></svg></g></svg>